<?xml version="1.0" standalone="no"?><!DOCTYPE svg PUBLIC "-//W3C//DTD SVG 1.1//EN" "http://www.w3.org/Graphics/SVG/1.1/DTD/svg11.dtd"><svg t="1649647301702" class="icon" viewBox="0 0 1024 1024" version="1.1" xmlns="http://www.w3.org/2000/svg" p-id="2054" xmlns:xlink="http://www.w3.org/1999/xlink" width="200" height="200"><defs><style type="text/css">@font-face { font-family: feedback-iconfont; src: url("//at.alicdn.com/t/font_1031158_u69w8yhxdu.woff2?t=1630033759944") format("woff2"), url("//at.alicdn.com/t/font_1031158_u69w8yhxdu.woff?t=1630033759944") format("woff"), url("//at.alicdn.com/t/font_1031158_u69w8yhxdu.ttf?t=1630033759944") format("truetype"); }
</style></defs><path d="M658.038 389.453c-75.302 0-144.402 26.545-198.462 70.781L325.419 326.077l133.048-133.048-44.349-44.349L281.07 281.728l-88.698-88.698L325.42 59.982l-44.349-44.349-133.048 133.048-44.349-44.349-44.349 44.349 355.903 355.903c-44.236 54.062-70.781 123.16-70.781 198.462 0 173.191 140.4 313.593 313.593 313.593s313.593-140.401 313.593-313.593c0-173.191-140.4-313.593-313.593-313.593z m207.991 453.764a252.976 252.976 0 0 1-30.66 37.159 252.687 252.687 0 0 1-37.161 30.66 250.595 250.595 0 0 1-42.576 23.11c-30.877 13.06-63.714 19.681-97.597 19.681s-66.719-6.622-97.597-19.681a250.92 250.92 0 0 1-42.576-23.11 253.097 253.097 0 0 1-37.161-30.66 252.808 252.808 0 0 1-30.66-37.159 250.595 250.595 0 0 1-23.11-42.576c-13.06-30.877-19.681-63.714-19.681-97.597 0-33.883 6.622-66.719 19.681-97.597a250.92 250.92 0 0 1 23.11-42.576 253.097 253.097 0 0 1 30.66-37.161 252.877 252.877 0 0 1 37.161-30.66 250.595 250.595 0 0 1 42.576-23.11c30.877-13.06 63.714-19.681 97.597-19.681s66.719 6.622 97.597 19.681a250.92 250.92 0 0 1 42.576 23.11 253.097 253.097 0 0 1 37.161 30.66 252.877 252.877 0 0 1 30.66 37.161 250.595 250.595 0 0 1 23.11 42.576c13.06 30.877 19.681 63.714 19.681 97.597 0 33.883-6.622 66.719-19.681 97.597a250.881 250.881 0 0 1-23.11 42.576z" fill="#d4237a" p-id="2055"></path></svg>